<svg xmlns="http://www.w3.org/2000/svg" viewBox="0 0 1200 900" preserveAspectRatio="xMidYMid slice" role="img">
  <defs>
    <radialGradient id="glow" cx="50%" cy="42%" r="80%">
      <stop offset="0%" stop-color="#2a2519"/>
      <stop offset="52%" stop-color="#1d1a12"/>
      <stop offset="100%" stop-color="#12100a"/>
    </radialGradient>
    <radialGradient id="vig" cx="50%" cy="50%" r="72%">
      <stop offset="0%" stop-color="#0d0b07" stop-opacity="0"/>
      <stop offset="70%" stop-color="#0d0b07" stop-opacity="0"/>
      <stop offset="100%" stop-color="#0d0b07" stop-opacity="0.55"/>
    </radialGradient>
    <filter id="grain">
      <feTurbulence type="fractalNoise" baseFrequency="0.8" numOctaves="2" stitchTiles="stitch"/>
      <feColorMatrix type="matrix" values="0 0 0 0 0.78 0 0 0 0 0.66 0 0 0 0 0.43 0 0 0 0.07 0"/>
    </filter>
  </defs>
  <rect width="1200" height="900" fill="url(#glow)"/>
  <g fill="none" stroke="#C8A96E">
    <path d="M420 780 V 420 A180 180 0 0 1 780 420 V 780" stroke-opacity="0.32" stroke-width="1.6"/>
    <path d="M450 780 V 428 A150 150 0 0 1 750 428 V 780" stroke-opacity="0.1" stroke-width="1"/>
    <circle cx="600" cy="400" r="70" stroke-opacity="0.26" stroke-width="1.2" fill="#C8A96E" fill-opacity="0.05"/>
    <path d="M430 780 C 500 700, 540 660, 600 640 C 660 620, 720 620, 770 640" stroke="#8A8070" stroke-opacity="0.45" stroke-width="1.8"/>
    <path d="M600 640 q 36 -24 74 -8 q -38 26 -74 8" fill="#2C3B2A" fill-opacity="0.8" stroke-opacity="0.18" stroke-width="1"/>
    <path d="M520 690 q -16 -40 6 -72 q 18 38 -6 72" fill="#2C3B2A" fill-opacity="0.8" stroke-opacity="0.18" stroke-width="1"/>
    <line x1="360" y1="780" x2="840" y2="780" stroke-opacity="0.26"/>
  </g>
  <rect width="1200" height="900" fill="url(#vig)"/>
  <rect width="1200" height="900" filter="url(#grain)"/>
</svg>
