<svg xmlns="http://www.w3.org/2000/svg" viewBox="0 0 1200 900" preserveAspectRatio="xMidYMid slice" role="img">
  <defs>
    <radialGradient id="glow" cx="50%" cy="42%" r="80%">
      <stop offset="0%" stop-color="#2b2820"/>
      <stop offset="50%" stop-color="#1e1c17"/>
      <stop offset="100%" stop-color="#131210"/>
    </radialGradient>
    <radialGradient id="vig" cx="50%" cy="50%" r="72%">
      <stop offset="0%" stop-color="#0e0d0b" stop-opacity="0"/>
      <stop offset="70%" stop-color="#0e0d0b" stop-opacity="0"/>
      <stop offset="100%" stop-color="#0e0d0b" stop-opacity="0.6"/>
    </radialGradient>
    <filter id="grain">
      <feTurbulence type="fractalNoise" baseFrequency="0.8" numOctaves="2" stitchTiles="stitch"/>
      <feColorMatrix type="matrix" values="0 0 0 0 0.83 0 0 0 0 0.74 0 0 0 0 0.60 0 0 0 0.07 0"/>
    </filter>
  </defs>
  <rect width="1200" height="900" fill="url(#glow)"/>
  <g fill="none" stroke="#D4AF6A">
    <path d="M420 780 V 420 A180 180 0 0 1 780 420 V 780" stroke-opacity="0.35" stroke-width="1.6"/>
    <path d="M450 780 V 428 A150 150 0 0 1 750 428 V 780" stroke-opacity="0.12" stroke-width="1"/>
    <circle cx="600" cy="400" r="70" stroke-opacity="0.3" stroke-width="1.2" fill="#D4AF6A" fill-opacity="0.06"/>
    <path d="M430 780 C 500 700, 540 660, 600 640 C 660 620, 720 620, 770 640" stroke="#8C7B65" stroke-opacity="0.5" stroke-width="1.8"/>
    <path d="M600 640 q 36 -24 74 -8 q -38 26 -74 8" fill="#0a2f28" fill-opacity="0.85" stroke-opacity="0.2" stroke-width="1"/>
    <path d="M520 690 q -16 -40 6 -72 q 18 38 -6 72" fill="#0a2f28" fill-opacity="0.85" stroke-opacity="0.2" stroke-width="1"/>
    <line x1="360" y1="780" x2="840" y2="780" stroke-opacity="0.3"/>
  </g>
  <rect width="1200" height="900" fill="url(#vig)"/>
  <rect width="1200" height="900" filter="url(#grain)"/>
</svg>
