<svg xmlns="http://www.w3.org/2000/svg" viewBox="0 0 1200 900" preserveAspectRatio="xMidYMid slice" role="img">
  <defs>
    <radialGradient id="glow" cx="50%" cy="42%" r="80%">
      <stop offset="0%" stop-color="#2a2519"/>
      <stop offset="52%" stop-color="#1d1a12"/>
      <stop offset="100%" stop-color="#12100a"/>
    </radialGradient>
    <radialGradient id="vig" cx="50%" cy="50%" r="72%">
      <stop offset="0%" stop-color="#0d0b07" stop-opacity="0"/>
      <stop offset="70%" stop-color="#0d0b07" stop-opacity="0"/>
      <stop offset="100%" stop-color="#0d0b07" stop-opacity="0.55"/>
    </radialGradient>
    <filter id="grain">
      <feTurbulence type="fractalNoise" baseFrequency="0.8" numOctaves="2" stitchTiles="stitch"/>
      <feColorMatrix type="matrix" values="0 0 0 0 0.78 0 0 0 0 0.66 0 0 0 0 0.43 0 0 0 0.07 0"/>
    </filter>
  </defs>
  <rect width="1200" height="900" fill="url(#glow)"/>
  <g stroke="#C8A96E" stroke-opacity="0.12" stroke-width="1.4" fill="none">
    <path d="M380 180 q 10 70 -4 140 q -8 50 2 96"/>
    <path d="M560 140 q 12 90 -2 170"/>
    <path d="M760 200 q 8 66 -6 130 q -6 44 4 84"/>
    <path d="M900 160 q 10 80 -2 150"/>
  </g>
  <g fill="#C8A96E">
    <circle cx="376" cy="428" r="7" fill-opacity="0.22"/>
    <circle cx="558" cy="322" r="5" fill-opacity="0.28"/>
    <circle cx="758" cy="426" r="6" fill-opacity="0.2"/>
    <circle cx="898" cy="322" r="4.5" fill-opacity="0.26"/>
    <circle cx="460" cy="540" r="5.5" fill-opacity="0.18"/>
    <circle cx="660" cy="580" r="7.5" fill-opacity="0.16"/>
    <circle cx="320" cy="640" r="4" fill-opacity="0.2"/>
    <circle cx="840" cy="600" r="5" fill-opacity="0.18"/>
    <circle cx="520" cy="680" r="6" fill-opacity="0.14"/>
    <circle cx="720" cy="700" r="4.5" fill-opacity="0.16"/>
    <circle cx="612" cy="240" r="4" fill-opacity="0.24"/>
    <circle cx="288" cy="300" r="5" fill-opacity="0.2"/>
  </g>
  <rect width="1200" height="900" fill="url(#vig)"/>
  <rect width="1200" height="900" filter="url(#grain)"/>
</svg>
