<svg xmlns="http://www.w3.org/2000/svg" viewBox="0 0 1200 900" preserveAspectRatio="xMidYMid slice" role="img">
  <defs>
    <radialGradient id="glow" cx="50%" cy="50%" r="80%">
      <stop offset="0%" stop-color="#2a2519"/>
      <stop offset="52%" stop-color="#1d1a12"/>
      <stop offset="100%" stop-color="#12100a"/>
    </radialGradient>
    <radialGradient id="vig" cx="50%" cy="50%" r="72%">
      <stop offset="0%" stop-color="#0d0b07" stop-opacity="0"/>
      <stop offset="70%" stop-color="#0d0b07" stop-opacity="0"/>
      <stop offset="100%" stop-color="#0d0b07" stop-opacity="0.55"/>
    </radialGradient>
    <filter id="grain">
      <feTurbulence type="fractalNoise" baseFrequency="0.8" numOctaves="2" stitchTiles="stitch"/>
      <feColorMatrix type="matrix" values="0 0 0 0 0.78 0 0 0 0 0.66 0 0 0 0 0.43 0 0 0 0.07 0"/>
    </filter>
  </defs>
  <rect width="1200" height="900" fill="url(#glow)"/>
  <g stroke="#C8A96E" stroke-opacity="0.35" stroke-width="1.4" fill="none">
    <path d="M470 520 h260 q0 130 -130 130 q-130 0 -130 -130 z" fill="#2C3B2A" fill-opacity="0.45"/>
    <path d="M730 542 q58 0 58 44 q0 44 -68 40"/>
    <ellipse cx="600" cy="520" rx="130" ry="15" fill="#12100a" fill-opacity="0.55"/>
    <path d="M560 470 q 14 -30 0 -55 q -14 -25 2 -50" stroke-opacity="0.2"/>
    <path d="M615 465 q 16 -34 0 -62 q -14 -26 2 -52" stroke-opacity="0.28"/>
    <path d="M665 470 q 12 -26 0 -48 q -12 -24 2 -46" stroke-opacity="0.16"/>
    <line x1="430" y1="678" x2="770" y2="678" stroke-opacity="0.18"/>
  </g>
  <rect width="1200" height="900" fill="url(#vig)"/>
  <rect width="1200" height="900" filter="url(#grain)"/>
</svg>
