<svg xmlns="http://www.w3.org/2000/svg" viewBox="0 0 1200 900" preserveAspectRatio="xMidYMid slice" role="img">
  <defs>
    <radialGradient id="glow" cx="50%" cy="48%" r="80%">
      <stop offset="0%" stop-color="#2b2820"/>
      <stop offset="50%" stop-color="#1e1c17"/>
      <stop offset="100%" stop-color="#131210"/>
    </radialGradient>
    <radialGradient id="vig" cx="50%" cy="50%" r="72%">
      <stop offset="0%" stop-color="#0e0d0b" stop-opacity="0"/>
      <stop offset="70%" stop-color="#0e0d0b" stop-opacity="0"/>
      <stop offset="100%" stop-color="#0e0d0b" stop-opacity="0.6"/>
    </radialGradient>
    <filter id="grain">
      <feTurbulence type="fractalNoise" baseFrequency="0.8" numOctaves="2" stitchTiles="stitch"/>
      <feColorMatrix type="matrix" values="0 0 0 0 0.83 0 0 0 0 0.74 0 0 0 0 0.60 0 0 0 0.07 0"/>
    </filter>
  </defs>
  <rect width="1200" height="900" fill="url(#glow)"/>
  <g stroke="#D4AF6A" stroke-opacity="0.4" stroke-width="1.4" fill="none">
    <path d="M480 720 C 540 560, 620 400, 740 280"/>
    <path d="M700 322 q -60 10 -96 56 q 66 -8 96 -56" fill="#0d2f28" fill-opacity="0.55" stroke-opacity="0.22"/>
    <path d="M660 374 q -64 12 -100 62 q 70 -10 100 -62" fill="#0d2f28" fill-opacity="0.5" stroke-opacity="0.2"/>
    <path d="M622 430 q -66 14 -102 66 q 72 -12 102 -66" fill="#0b2b25" fill-opacity="0.45" stroke-opacity="0.18"/>
    <path d="M586 488 q -62 16 -94 66 q 68 -14 94 -66" fill="#0b2b25" fill-opacity="0.4" stroke-opacity="0.16"/>
    <path d="M554 544 q -56 18 -84 62 q 62 -14 84 -62" fill="#0a2822" fill-opacity="0.35" stroke-opacity="0.14"/>
    <path d="M480 720 q -8 28 8 46" stroke-opacity="0.3"/>
    <circle cx="742" cy="278" r="2" fill="#D4AF6A" fill-opacity="0.5" stroke="none"/>
  </g>
  <rect width="1200" height="900" fill="url(#vig)"/>
  <rect width="1200" height="900" filter="url(#grain)"/>
</svg>
