<svg xmlns="http://www.w3.org/2000/svg" viewBox="0 0 1200 900" preserveAspectRatio="xMidYMid slice" role="img">
  <defs>
    <radialGradient id="glow" cx="50%" cy="48%" r="80%">
      <stop offset="0%" stop-color="#2a2519"/>
      <stop offset="52%" stop-color="#1d1a12"/>
      <stop offset="100%" stop-color="#12100a"/>
    </radialGradient>
    <radialGradient id="vig" cx="50%" cy="50%" r="72%">
      <stop offset="0%" stop-color="#0d0b07" stop-opacity="0"/>
      <stop offset="70%" stop-color="#0d0b07" stop-opacity="0"/>
      <stop offset="100%" stop-color="#0d0b07" stop-opacity="0.55"/>
    </radialGradient>
    <filter id="grain">
      <feTurbulence type="fractalNoise" baseFrequency="0.8" numOctaves="2" stitchTiles="stitch"/>
      <feColorMatrix type="matrix" values="0 0 0 0 0.78 0 0 0 0 0.66 0 0 0 0 0.43 0 0 0 0.07 0"/>
    </filter>
  </defs>
  <rect width="1200" height="900" fill="url(#glow)"/>
  <g stroke="#C8A96E" stroke-opacity="0.4" fill="none" stroke-width="1.5">
    <path d="M300 660 C 400 620, 450 540, 550 518 C 670 492, 690 576, 790 536 C 850 512, 872 452, 866 392"/>
    <path d="M300 660 q -30 14 -52 8" stroke-opacity="0.2"/>
  </g>
  <g fill="#242018" stroke="#C8A96E" stroke-opacity="0.45" stroke-width="1.3">
    <path d="M866 392 C 846 352, 846 320, 858 288 L 878 288 C 892 320, 890 352, 870 392 Z"/>
    <line x1="868" y1="380" x2="868" y2="320" stroke-opacity="0.3"/>
    <circle cx="868" cy="312" r="3" fill="#C8A96E" fill-opacity="0.4" stroke="none"/>
  </g>
  <rect width="1200" height="900" fill="url(#vig)"/>
  <rect width="1200" height="900" filter="url(#grain)"/>
</svg>
