<svg xmlns="http://www.w3.org/2000/svg" viewBox="0 0 1200 900" preserveAspectRatio="xMidYMid slice" role="img">
  <defs>
    <radialGradient id="glow" cx="50%" cy="48%" r="80%">
      <stop offset="0%" stop-color="#2a2519"/>
      <stop offset="52%" stop-color="#1d1a12"/>
      <stop offset="100%" stop-color="#12100a"/>
    </radialGradient>
    <radialGradient id="vig" cx="50%" cy="50%" r="72%">
      <stop offset="0%" stop-color="#0d0b07" stop-opacity="0"/>
      <stop offset="70%" stop-color="#0d0b07" stop-opacity="0"/>
      <stop offset="100%" stop-color="#0d0b07" stop-opacity="0.55"/>
    </radialGradient>
    <filter id="grain">
      <feTurbulence type="fractalNoise" baseFrequency="0.8" numOctaves="2" stitchTiles="stitch"/>
      <feColorMatrix type="matrix" values="0 0 0 0 0.78 0 0 0 0 0.66 0 0 0 0 0.43 0 0 0 0.07 0"/>
    </filter>
  </defs>
  <rect width="1200" height="900" fill="url(#glow)"/>
  <g stroke="#C8A96E" stroke-opacity="0.38" stroke-width="1.4" fill="#242018" fill-opacity="0.6">
    <path d="M600 420 C 520 380, 440 375, 380 390 L 380 620 C 440 605, 520 610, 600 650 Z"/>
    <path d="M600 420 C 680 380, 760 375, 820 390 L 820 620 C 760 605, 680 610, 600 650 Z"/>
    <line x1="600" y1="420" x2="600" y2="650" stroke-opacity="0.22"/>
  </g>
  <g stroke="#C8A96E" stroke-opacity="0.14" fill="none" stroke-width="1">
    <path d="M420 440 C 470 425, 530 428, 570 448"/>
    <path d="M420 490 C 470 475, 530 478, 570 498"/>
    <path d="M420 540 C 470 525, 530 528, 570 548"/>
    <path d="M630 448 C 670 428, 730 425, 780 440"/>
    <path d="M630 498 C 670 478, 730 475, 780 490"/>
    <path d="M630 548 C 670 528, 730 525, 780 540"/>
  </g>
  <rect width="1200" height="900" fill="url(#vig)"/>
  <rect width="1200" height="900" filter="url(#grain)"/>
</svg>
