<svg xmlns="http://www.w3.org/2000/svg" viewBox="0 0 1200 900" preserveAspectRatio="xMidYMid slice" role="img">
  <defs>
    <radialGradient id="glow" cx="55%" cy="60%" r="80%">
      <stop offset="0%" stop-color="#2b2820"/>
      <stop offset="50%" stop-color="#1e1c17"/>
      <stop offset="100%" stop-color="#131210"/>
    </radialGradient>
    <radialGradient id="vig" cx="50%" cy="50%" r="72%">
      <stop offset="0%" stop-color="#0e0d0b" stop-opacity="0"/>
      <stop offset="70%" stop-color="#0e0d0b" stop-opacity="0"/>
      <stop offset="100%" stop-color="#0e0d0b" stop-opacity="0.6"/>
    </radialGradient>
    <filter id="grain">
      <feTurbulence type="fractalNoise" baseFrequency="0.8" numOctaves="2" stitchTiles="stitch"/>
      <feColorMatrix type="matrix" values="0 0 0 0 0.83 0 0 0 0 0.74 0 0 0 0 0.60 0 0 0 0.07 0"/>
    </filter>
  </defs>
  <rect width="1200" height="900" fill="url(#glow)"/>
  <g stroke="#8C7B65" stroke-opacity="0.55" fill="none" stroke-width="2">
    <path d="M180 820 C 340 720, 460 640, 620 560 C 720 510, 800 470, 900 450"/>
    <path d="M470 638 C 520 600, 570 585, 630 585"/>
    <path d="M620 560 C 660 520, 700 500, 760 495"/>
  </g>
  <g fill="#0a2f28" fill-opacity="0.9" stroke="#D4AF6A" stroke-opacity="0.22" stroke-width="1">
    <path d="M630 585 q 44 -28 88 -8 q -44 30 -88 8"/>
    <path d="M760 495 q 42 -26 84 -8 q -42 28 -84 8"/>
    <path d="M900 450 q 40 -26 82 -8 q -42 28 -82 8"/>
    <path d="M540 612 q -20 -46 6 -84 q 22 44 -6 84"/>
    <path d="M700 528 q -18 -44 6 -80 q 20 42 -6 80"/>
  </g>
  <rect width="1200" height="900" fill="url(#vig)"/>
  <rect width="1200" height="900" filter="url(#grain)"/>
</svg>
