<svg xmlns="http://www.w3.org/2000/svg" viewBox="0 0 1200 900" preserveAspectRatio="xMidYMid slice" role="img">
  <defs>
    <radialGradient id="glow" cx="50%" cy="52%" r="80%">
      <stop offset="0%" stop-color="#2a2519"/>
      <stop offset="52%" stop-color="#1d1a12"/>
      <stop offset="100%" stop-color="#12100a"/>
    </radialGradient>
    <radialGradient id="vig" cx="50%" cy="50%" r="72%">
      <stop offset="0%" stop-color="#0d0b07" stop-opacity="0"/>
      <stop offset="70%" stop-color="#0d0b07" stop-opacity="0"/>
      <stop offset="100%" stop-color="#0d0b07" stop-opacity="0.55"/>
    </radialGradient>
    <filter id="grain">
      <feTurbulence type="fractalNoise" baseFrequency="0.8" numOctaves="2" stitchTiles="stitch"/>
      <feColorMatrix type="matrix" values="0 0 0 0 0.78 0 0 0 0 0.66 0 0 0 0 0.43 0 0 0 0.07 0"/>
    </filter>
  </defs>
  <rect width="1200" height="900" fill="url(#glow)"/>
  <g stroke="#C8A96E" stroke-opacity="0.32" stroke-width="1.3" fill="none">
    <path d="M600 740 C 590 600, 600 460, 640 330"/>
    <path d="M612 640 q -70 -12 -104 -66"/>
    <path d="M616 640 q 66 -6 96 -54"/>
    <path d="M606 560 q -64 -14 -92 -62"/>
    <path d="M610 556 q 60 -8 86 -52"/>
    <path d="M606 480 q -54 -14 -76 -56"/>
    <path d="M612 476 q 52 -8 72 -48"/>
    <path d="M614 408 q -44 -14 -60 -48"/>
    <path d="M620 404 q 42 -8 56 -42"/>
    <path d="M630 350 q -30 -12 -40 -38"/>
    <path d="M634 346 q 30 -8 40 -34"/>
  </g>
  <rect width="1200" height="900" fill="url(#vig)"/>
  <rect width="1200" height="900" filter="url(#grain)"/>
</svg>
