<svg xmlns="http://www.w3.org/2000/svg" viewBox="0 0 1200 900" preserveAspectRatio="xMidYMid slice" role="img">
  <defs>
    <radialGradient id="glow" cx="50%" cy="50%" r="80%">
      <stop offset="0%" stop-color="#2a2519"/>
      <stop offset="52%" stop-color="#1d1a12"/>
      <stop offset="100%" stop-color="#12100a"/>
    </radialGradient>
    <radialGradient id="vig" cx="50%" cy="50%" r="72%">
      <stop offset="0%" stop-color="#0d0b07" stop-opacity="0"/>
      <stop offset="70%" stop-color="#0d0b07" stop-opacity="0"/>
      <stop offset="100%" stop-color="#0d0b07" stop-opacity="0.55"/>
    </radialGradient>
    <filter id="grain">
      <feTurbulence type="fractalNoise" baseFrequency="0.8" numOctaves="2" stitchTiles="stitch"/>
      <feColorMatrix type="matrix" values="0 0 0 0 0.78 0 0 0 0 0.66 0 0 0 0 0.43 0 0 0 0.07 0"/>
    </filter>
  </defs>
  <rect width="1200" height="900" fill="url(#glow)"/>
  <g stroke="#C8A96E" stroke-opacity="0.35" stroke-width="1.4" fill="none">
    <path d="M440 500 h320 q0 155 -160 155 q-160 0 -160 -155 z" fill="#2C3B2A" fill-opacity="0.45"/>
    <ellipse cx="600" cy="500" rx="160" ry="18" fill="#12100a" fill-opacity="0.55"/>
    <path d="M548 452 q 15 -32 0 -58 q -14 -26 2 -52" stroke-opacity="0.2"/>
    <path d="M610 446 q 17 -36 0 -66 q -15 -27 2 -55" stroke-opacity="0.28"/>
    <path d="M668 452 q 13 -28 0 -50 q -13 -25 2 -48" stroke-opacity="0.16"/>
    <line x1="420" y1="690" x2="780" y2="690" stroke-opacity="0.18"/>
  </g>
  <rect width="1200" height="900" fill="url(#vig)"/>
  <rect width="1200" height="900" filter="url(#grain)"/>
</svg>
