<svg xmlns="http://www.w3.org/2000/svg" viewBox="0 0 1200 900" preserveAspectRatio="xMidYMid slice" role="img">
  <defs>
    <radialGradient id="glow" cx="50%" cy="50%" r="80%">
      <stop offset="0%" stop-color="#2a2519"/>
      <stop offset="52%" stop-color="#1d1a12"/>
      <stop offset="100%" stop-color="#12100a"/>
    </radialGradient>
    <radialGradient id="vig" cx="50%" cy="50%" r="72%">
      <stop offset="0%" stop-color="#0d0b07" stop-opacity="0"/>
      <stop offset="70%" stop-color="#0d0b07" stop-opacity="0"/>
      <stop offset="100%" stop-color="#0d0b07" stop-opacity="0.55"/>
    </radialGradient>
    <filter id="grain">
      <feTurbulence type="fractalNoise" baseFrequency="0.8" numOctaves="2" stitchTiles="stitch"/>
      <feColorMatrix type="matrix" values="0 0 0 0 0.78 0 0 0 0 0.66 0 0 0 0 0.43 0 0 0 0.07 0"/>
    </filter>
  </defs>
  <rect width="1200" height="900" fill="url(#glow)"/>
  <g stroke="#C8A96E" stroke-opacity="0.35" stroke-width="1.4" fill="none">
    <path d="M594 730 C 590 610, 598 490, 616 390"/>
    <g fill="#2C3B2A" fill-opacity="0.7" stroke-opacity="0.25" stroke-width="1">
      <path d="M616 390 q -34 -18 -40 -56 q 40 12 40 56"/>
      <path d="M616 390 q 36 -16 44 -54 q -42 10 -44 54"/>
      <path d="M610 444 q -34 -18 -40 -56 q 40 12 40 56"/>
      <path d="M610 444 q 36 -16 44 -54 q -42 10 -44 54"/>
      <path d="M604 498 q -32 -18 -38 -54 q 38 12 38 54"/>
      <path d="M604 498 q 34 -16 42 -52 q -40 10 -42 52"/>
    </g>
    <path d="M616 390 q 4 -46 22 -74" stroke-opacity="0.2"/>
    <path d="M616 390 q -8 -44 -24 -70" stroke-opacity="0.2"/>
  </g>
  <rect width="1200" height="900" fill="url(#vig)"/>
  <rect width="1200" height="900" filter="url(#grain)"/>
</svg>
