<svg xmlns="http://www.w3.org/2000/svg" viewBox="0 0 1200 900" preserveAspectRatio="xMidYMid slice" role="img">
  <defs>
    <radialGradient id="glow" cx="50%" cy="46%" r="80%">
      <stop offset="0%" stop-color="#2b2820"/>
      <stop offset="50%" stop-color="#1e1c17"/>
      <stop offset="100%" stop-color="#131210"/>
    </radialGradient>
    <radialGradient id="vig" cx="50%" cy="50%" r="72%">
      <stop offset="0%" stop-color="#0e0d0b" stop-opacity="0"/>
      <stop offset="70%" stop-color="#0e0d0b" stop-opacity="0"/>
      <stop offset="100%" stop-color="#0e0d0b" stop-opacity="0.6"/>
    </radialGradient>
    <filter id="grain">
      <feTurbulence type="fractalNoise" baseFrequency="0.8" numOctaves="2" stitchTiles="stitch"/>
      <feColorMatrix type="matrix" values="0 0 0 0 0.83 0 0 0 0 0.74 0 0 0 0 0.60 0 0 0 0.07 0"/>
    </filter>
  </defs>
  <rect width="1200" height="900" fill="url(#glow)"/>
  <g>
    <circle cx="600" cy="420" r="130" fill="#D4AF6A" fill-opacity="0.05"/>
    <circle cx="600" cy="430" r="58" fill="#D4AF6A" fill-opacity="0.07"/>
    <rect x="575" y="470" width="50" height="240" rx="5" fill="#262219" stroke="#D4AF6A" stroke-opacity="0.25"/>
    <path d="M600 396 q 16 28 0 54 q -16 -26 0 -54" fill="#D4AF6A" fill-opacity="0.75"/>
    <line x1="600" y1="450" x2="600" y2="470" stroke="#8C7B65" stroke-opacity="0.8" stroke-width="2"/>
    <rect x="455" y="540" width="40" height="170" rx="4" fill="#221f18" stroke="#D4AF6A" stroke-opacity="0.18"/>
    <path d="M475 478 q 12 22 0 42 q -12 -20 0 -42" fill="#D4AF6A" fill-opacity="0.6"/>
    <circle cx="475" cy="497" r="34" fill="#D4AF6A" fill-opacity="0.05"/>
    <line x1="475" y1="520" x2="475" y2="540" stroke="#8C7B65" stroke-opacity="0.8" stroke-width="2"/>
    <rect x="705" y="575" width="36" height="135" rx="4" fill="#221f18" stroke="#D4AF6A" stroke-opacity="0.18"/>
    <path d="M723 516 q 11 20 0 39 q -11 -19 0 -39" fill="#D4AF6A" fill-opacity="0.6"/>
    <circle cx="723" cy="534" r="30" fill="#D4AF6A" fill-opacity="0.05"/>
    <line x1="723" y1="555" x2="723" y2="575" stroke="#8C7B65" stroke-opacity="0.8" stroke-width="2"/>
    <line x1="380" y1="712" x2="820" y2="712" stroke="#D4AF6A" stroke-opacity="0.2"/>
  </g>
  <rect width="1200" height="900" fill="url(#vig)"/>
  <rect width="1200" height="900" filter="url(#grain)"/>
</svg>
