<svg xmlns="http://www.w3.org/2000/svg" viewBox="0 0 1200 900" preserveAspectRatio="xMidYMid slice" role="img">
  <defs>
    <radialGradient id="glow" cx="48%" cy="54%" r="80%">
      <stop offset="0%" stop-color="#2b2820"/>
      <stop offset="50%" stop-color="#1e1c17"/>
      <stop offset="100%" stop-color="#131210"/>
    </radialGradient>
    <radialGradient id="vig" cx="50%" cy="50%" r="72%">
      <stop offset="0%" stop-color="#0e0d0b" stop-opacity="0"/>
      <stop offset="70%" stop-color="#0e0d0b" stop-opacity="0"/>
      <stop offset="100%" stop-color="#0e0d0b" stop-opacity="0.6"/>
    </radialGradient>
    <filter id="grain">
      <feTurbulence type="fractalNoise" baseFrequency="0.8" numOctaves="2" stitchTiles="stitch"/>
      <feColorMatrix type="matrix" values="0 0 0 0 0.83 0 0 0 0 0.74 0 0 0 0 0.60 0 0 0 0.07 0"/>
    </filter>
  </defs>
  <rect width="1200" height="900" fill="url(#glow)"/>
<g transform="translate(120,140) scale(0.82)">  <g stroke="#D4AF6A" stroke-opacity="0.3" stroke-width="1.2" fill="#0d2f28" fill-opacity="0.7">
    <path d="M560 470 h44 v40 q36 22 36 70 v100 q0 22 -22 22 h-72 q-22 0 -22 -22 v-100 q0 -48 36 -70 z"/>
    <rect x="556" y="448" width="52" height="24" rx="4" fill="#262219"/>
    <path d="M690 540 h30 v28 q26 16 26 52 v62 q0 20 -20 20 h-42 q-20 0 -20 -20 v-62 q0 -36 26 -52 z"/>
    <rect x="687" y="522" width="36" height="20" rx="3" fill="#262219"/>
    <path d="M448 560 h26 v24 q22 14 22 46 v52 q0 20 -20 20 h-30 q-20 0 -20 -20 v-52 q0 -32 22 -46 z"/>
    <rect x="445" y="544" width="32" height="18" rx="3" fill="#262219"/>
    <line x1="536" y1="600" x2="628" y2="600" stroke-opacity="0.15" fill="none"/>
    <line x1="390" y1="704" x2="810" y2="704" stroke-opacity="0.2" fill="none"/>
  </g></g><g transform="translate(430,-160) scale(0.5)">  <g>
    <path d="M660 250 A160 160 0 1 0 660 550 A205 205 0 0 1 660 250 Z" fill="#D4AF6A" fill-opacity="0.10" stroke="#D4AF6A" stroke-opacity="0.3" stroke-width="1.2"/>
    <circle cx="600" cy="400" r="235" fill="none" stroke="#D4AF6A" stroke-opacity="0.07"/>
    <circle cx="410" cy="250" r="2" fill="#D4AF6A" fill-opacity="0.5"/>
    <circle cx="840" cy="560" r="2.4" fill="#D4AF6A" fill-opacity="0.4"/>
    <circle cx="360" cy="580" r="1.6" fill="#D4AF6A" fill-opacity="0.4"/>
  </g></g>
  <rect width="1200" height="900" fill="url(#vig)"/>
  <rect width="1200" height="900" filter="url(#grain)"/>
</svg>
