<svg xmlns="http://www.w3.org/2000/svg" viewBox="0 0 1200 900" preserveAspectRatio="xMidYMid slice" role="img">
  <defs>
    <radialGradient id="glow" cx="52%" cy="46%" r="80%">
      <stop offset="0%" stop-color="#2b2820"/>
      <stop offset="50%" stop-color="#1e1c17"/>
      <stop offset="100%" stop-color="#131210"/>
    </radialGradient>
    <radialGradient id="vig" cx="50%" cy="50%" r="72%">
      <stop offset="0%" stop-color="#0e0d0b" stop-opacity="0"/>
      <stop offset="70%" stop-color="#0e0d0b" stop-opacity="0"/>
      <stop offset="100%" stop-color="#0e0d0b" stop-opacity="0.6"/>
    </radialGradient>
    <filter id="grain">
      <feTurbulence type="fractalNoise" baseFrequency="0.8" numOctaves="2" stitchTiles="stitch"/>
      <feColorMatrix type="matrix" values="0 0 0 0 0.83 0 0 0 0 0.74 0 0 0 0 0.60 0 0 0 0.07 0"/>
    </filter>
  </defs>
  <rect width="1200" height="900" fill="url(#glow)"/>
<g transform="translate(-170,10) scale(0.9)">  <g stroke="#D4AF6A" stroke-opacity="0.45" stroke-width="2" fill="none">
    <circle cx="600" cy="330" r="58"/>
    <circle cx="600" cy="330" r="34" stroke-opacity="0.2"/>
    <line x1="600" y1="388" x2="600" y2="640"/>
    <path d="M600 640 h46 v-26 h-24 v-20 h24" stroke-linejoin="round"/>
    <path d="M600 560 h-30 v-20" stroke-opacity="0.3"/>
    <circle cx="600" cy="330" r="92" stroke-opacity="0.08"/>
    <circle cx="600" cy="330" r="130" stroke-opacity="0.04"/>
  </g></g><g transform="translate(200,60) scale(0.85)">  <g stroke="#D4AF6A" stroke-opacity="0.3" stroke-width="1.2" fill="#0d2f28" fill-opacity="0.7">
    <path d="M560 470 h44 v40 q36 22 36 70 v100 q0 22 -22 22 h-72 q-22 0 -22 -22 v-100 q0 -48 36 -70 z"/>
    <rect x="556" y="448" width="52" height="24" rx="4" fill="#262219"/>
    <path d="M690 540 h30 v28 q26 16 26 52 v62 q0 20 -20 20 h-42 q-20 0 -20 -20 v-62 q0 -36 26 -52 z"/>
    <rect x="687" y="522" width="36" height="20" rx="3" fill="#262219"/>
    <path d="M448 560 h26 v24 q22 14 22 46 v52 q0 20 -20 20 h-30 q-20 0 -20 -20 v-52 q0 -32 22 -46 z"/>
    <rect x="445" y="544" width="32" height="18" rx="3" fill="#262219"/>
    <line x1="536" y1="600" x2="628" y2="600" stroke-opacity="0.15" fill="none"/>
    <line x1="390" y1="704" x2="810" y2="704" stroke-opacity="0.2" fill="none"/>
  </g></g>
  <rect width="1200" height="900" fill="url(#vig)"/>
  <rect width="1200" height="900" filter="url(#grain)"/>
</svg>
